<?xml version="1.0" encoding="utf-8"?>
<!-- Generator: Adobe Illustrator 19.0.0, SVG Export Plug-In . SVG Version: 6.00 Build 0)  -->
<svg version="1.1" id="Layer_1" xmlns="http://www.w3.org/2000/svg" xmlns:xlink="http://www.w3.org/1999/xlink" x="0px" y="0px"
	 viewBox="0 0 40 40" style="enable-background:new 0 0 40 40;" xml:space="preserve">
<style type="text/css">
	.st0{fill:url(#XMLID_2_);}
</style>
<linearGradient id="XMLID_2_" gradientUnits="userSpaceOnUse" x1="0.9091" y1="20" x2="39.0909" y2="20">
	<stop  offset="0" style="stop-color:#F9A026"/>
	<stop  offset="0.5" style="stop-color:#FFD77D"/>
	<stop  offset="1" style="stop-color:#F9A026"/>
</linearGradient>
<path id="XMLID_110_" class="st0" d="M34.5,7.3h-3L30.1,6l-1.9,9.4l-6.9-7.7c0,0,5.6-4.2,6-7.7H12.7c0.4,3.5,6,7.7,6,7.7l-6.9,7.7
	L9.9,6L9.3,7.3H5.5c-2.5,0-4.6,2-4.6,4.5v23.7C0.9,38,3,40,5.5,40h29c2.5,0,4.6-2,4.6-4.5V11.8C39.1,9.3,37,7.3,34.5,7.3z
	 M15.8,12.3l3.6-3.7c0.2-0.2,0.4-0.3,0.6-0.3c0.2,0,0.4,0.1,0.6,0.2l3.6,3.5c0.2,0.2,0.3,0.4,0.3,0.6c0,0.2-0.1,0.4-0.2,0.6
	l-3.6,3.7c-0.2,0.2-0.4,0.3-0.6,0.3c-0.2,0-0.4-0.1-0.6-0.2l-3.6-3.5c-0.2-0.2-0.3-0.4-0.3-0.6C15.6,12.6,15.6,12.4,15.8,12.3z
	 M20.7,36.2l-5.4-4.8l1.4-16.1l3.3,3.1l3.4-3.1l2.2,16.1L20.7,36.2z"/>
</svg>
