<?xml version="1.0" encoding="utf-8"?>
<!-- Generator: Adobe Illustrator 19.0.0, SVG Export Plug-In . SVG Version: 6.00 Build 0)  -->
<svg version="1.1" id="Layer_1" xmlns="http://www.w3.org/2000/svg" xmlns:xlink="http://www.w3.org/1999/xlink" x="0px" y="0px"
	 viewBox="0 0 40 40" style="enable-background:new 0 0 40 40;" xml:space="preserve">
<g id="XMLID_90_">
	<path id="XMLID_422_" d="M14,18h-4v4h4V18z M22,18h-4v4h4V18z M30,18h-4v4h4V18z M34,4h-2V0h-4v4H12V0H8v4H6C3.8,4,2,5.8,2,8l0,28
		c0,2.2,1.8,4,4,4h28c2.2,0,4-1.8,4-4V8C38,5.8,36.2,4,34,4z M34,36H6V14h28V36z"/>
</g>
</svg>
