<?xml version="1.0" encoding="utf-8"?>
<!-- Generator: Adobe Illustrator 19.0.0, SVG Export Plug-In . SVG Version: 6.00 Build 0)  -->
<svg version="1.1" id="Layer_1" xmlns="http://www.w3.org/2000/svg" xmlns:xlink="http://www.w3.org/1999/xlink" x="0px" y="0px"
	 viewBox="0 0 40 40" style="enable-background:new 0 0 40 40;" xml:space="preserve">
<style type="text/css">
	.st0{fill:url(#XMLID_2_);}
	.st1{fill:url(#XMLID_3_);}
</style>
<g id="XMLID_75_">
	<linearGradient id="XMLID_2_" gradientUnits="userSpaceOnUse" x1="6.9975" y1="7.0025" x2="38.3592" y2="38.3642">
		<stop  offset="0" style="stop-color:#F9A026"/>
		<stop  offset="0.5" style="stop-color:#FFD77D"/>
		<stop  offset="1" style="stop-color:#F9A026"/>
	</linearGradient>
	<path id="XMLID_90_" class="st0" d="M20,0C8.9,0,0,9,0,20s8.9,20,20,20s20-9,20-20S31,0,20,0z M20,36c-8.8,0-16-7.2-16-16
		c0-8.8,7.2-16,16-16s16,7.2,16,16C36,28.8,28.8,36,20,36z"/>
	<linearGradient id="XMLID_3_" gradientUnits="userSpaceOnUse" x1="8.75" y1="5.25" x2="40.1117" y2="36.6117">
		<stop  offset="0" style="stop-color:#F9A026"/>
		<stop  offset="0.5" style="stop-color:#FFD77D"/>
		<stop  offset="1" style="stop-color:#F9A026"/>
	</linearGradient>
	<path id="XMLID_85_" class="st1" d="M21,10h-3v12l10.5,6.3l1.5-2.5l-9-5.3V10z"/>
</g>
</svg>
